<svg id="Layer_1" data-name="Layer 1" xmlns="http://www.w3.org/2000/svg" viewBox="0 0 566.4 600"><defs><style>.cls-1{fill:#b3b3b3;}.cls-2{fill:#b63032;}.cls-3{fill:#e23337;}.cls-4{fill:#f3f3f3;}</style></defs><title>angular</title><path class="cls-1" d="M299.09,0L16.8,99.35,61.41,469.2l238,130.8L538.61,467.42,583.2,97.58Z" transform="translate(-16.8)"/><path class="cls-2" d="M555,119L298.44,31.46V568.75l215-119Z" transform="translate(-16.8)"/><path class="cls-3" d="M48.48,120.54L86.7,451.32,298.43,568.75V31.45Z" transform="translate(-16.8)"/><path class="cls-4" d="M357.92,298.7l-59-123.23L247,298.7h111Zm22.5,51.82H224l-35,87.53-65.09,1.2L298.44,51,479.06,439.25H418.73Z" transform="translate(-16.8)"/><path class="cls-1" d="M298.44,51l0.46,124.5,59,123.33H298.57l-0.13,51.64,82,0.08,38.31,88.75L481,440.42Z" transform="translate(-16.8)"/></svg>