<svg id="Layer_1" data-name="Layer 1" xmlns="http://www.w3.org/2000/svg" xmlns:xlink="http://www.w3.org/1999/xlink" viewBox="0 0 597.53 600"><defs><style>.cls-1{fill:url(#linear-gradient);}.cls-2{fill:#fff;}</style><linearGradient id="linear-gradient" x1="310.53" y1="139.32" x2="344.22" y2="173.6" gradientTransform="matrix(15.62, 0, 0, -15.62, -4816.94, 2745.53)" gradientUnits="userSpaceOnUse"><stop offset="0" stop-color="#121134"/><stop offset="1" stop-color="#612e51"/></linearGradient></defs><title>bootstrap</title><g id="layer1"><rect id="rect3050" class="cls-1" width="597.53" height="600" rx="96.52" ry="96.52"/><g id="text3836"><path id="path3841" class="cls-2" d="M305.59,258.34q22.89,0,34.71-10T352.13,219q0-19.17-11.82-29.13-11.82-10.21-34.71-10.21H252v78.67h53.58m3.27,162.56q29.18,0,43.77-12.2,14.84-12.2,14.84-36.84,0-24.15-14.59-36.1-14.59-12.2-44-12.2H252V420.9h56.85m90.05-133.68q31.19,9,48.3,33.11t17.1,59.25q0,53.77-36.72,80.16T315.91,486.12H155.17V114.45H300.56q78.23,0,113.19,23.4Q449,161.25,449,212.78q0,27.14-12.83,46.3Q423.31,278,398.91,287.21" transform="translate(-2.32 -0.03)"/></g></g></svg>