<svg id="Layer_1" data-name="Layer 1" xmlns="http://www.w3.org/2000/svg" viewBox="0 0 600 527.47"><defs><style>.cls-1{fill:#2caae1;}.cls-2{fill:#ffcd31;}.cls-3{fill:#30af4a;}.cls-4{fill:#f05834;}.cls-5{fill:#55382a;}.cls-6{fill:#fff;}.cls-7{fill:#cfcfce;}</style></defs><title>bower</title><g id="leaf"><path class="cls-1" d="M509.33,74.41c-79.48,0-138.75,84-111.35,144.34C510.46,218.75,464.67,114.91,509.33,74.41Z" transform="translate(0 -36.27)"/></g><path id="body" class="cls-2" d="M535,301.16c0-26.71-127.3-40-198.21-44.14S6.8,302,37.47,367,146,501,233.54,501c45.37,0,97.95-32,100.84-90.68C386.86,392.77,535,391.84,535,301.16Z" transform="translate(0 -36.27)"/><path id="wing_tip" data-name="wing tip" class="cls-3" d="M469.9,318.92c8.23,8.33-17.84,30.81-40.55,20.23,10.23,23.07-34.78,42.26-56.64,25.81,2.34,18.59-42.33,29.29-56.58,8.55,3.67,9.89,6.75,17.46,9.64,23.68l-0.05-.17c7.41,9.7,17.49,17.51,61.4,17.51,67.65,0,176.92-51.39,176.92-89.11,0-31.22-11.71-34.15-31.87-31.87s-125.59,13.23-148,8.83C396.31,305,457.66,316.71,469.9,318.92Z" transform="translate(0 -36.27)"/><path id="head" class="cls-4" d="M232.63,57.21c-129.35,0-259.19,128.58-197.4,305.92,42,25.23,97.94,15.23,110.48,1.8,19,6.06,35.87,8.61,51,8.61,78.57,0,145.71-83.48,145.71-187.8C342.41,78.75,271.79,57.21,232.63,57.21Z" transform="translate(0 -36.27)"/><path id="eye_rim" data-name="eye rim" class="cls-2" d="M179.66,171.71a52.27,52.27,0,1,0,52.27-52.27A52.27,52.27,0,0,0,179.66,171.71Z" transform="translate(0 -36.27)"/><path id="eye" class="cls-5" d="M200.63,171.71a31.29,31.29,0,1,0,31.29-31.29A31.29,31.29,0,0,0,200.63,171.71Z" transform="translate(0 -36.27)"/><ellipse id="pupil_highlight" data-name="pupil highlight" class="cls-6" cx="231.93" cy="121.55" rx="18.23" ry="11.34"/><path id="beak" class="cls-7" d="M339.14,144.93c-23.76,13.84-23,58.63-12.42,80.49,20.44-7.58,48.93-22.61,53.35-25.29s-2.45-12.88,14.72-12.88c23.81,0,45.33,7.44,51.51,10.12C442.4,189.31,393.47,144.93,339.14,144.93Z" transform="translate(0 -36.27)"/><path id="outline" class="cls-5" d="M588.53,293.9c-30.86-29.65-185.18-48.16-233.87-53.55a142.9,142.9,0,0,0,6-17.26,194.51,194.51,0,0,1,21.21-7.87c0.9,2.66,5.15,12.87,7.58,17.71,97.91,2.7,102.94-72.76,106.92-93.44,3.89-20.21,3.7-39.75,37.28-75.45-50-14.58-122,22.6-146.09,77.94a150.19,150.19,0,0,0-27.11-7.45c-6.43-26-39.93-98.26-127.85-98.26-56.94,0-114.35,23.51-157.52,64.51a235.22,235.22,0,0,0-54.31,78C7,210.76,0,246,0,283.54,0,414.21,89.21,528.73,139.62,528.73c22,0,40.95-16.48,45.39-31.26,3.73,10.13,15.16,41.63,18.92,49.65,5.55,11.86,31.22,22.12,42.46,9.81,14.44,8,40.95,12.86,55.39-8.54,27.82,5.89,52.42-10.71,52.95-30.5,13.65-.73,20.35-19.9,17.37-35.16-2.2-11.24-25.67-51.56-34.83-65.48,18.13,14.74,64,18.92,69.61,0,29.22,22.93,74.76,10.9,78.37-7.76,35.51,9.23,76.24-11,69.55-35.58C611.84,370,604.54,309.28,588.53,293.9ZM440,193.31c-15-5.9-34.08-9.63-47.44-9.63-18.94,0-30.48,10.73-48.3,10.73-3.74,0-12.67,0-19.84-2.53,4.71,4.94,10.58,7.62,21.94,7.62,6.79,0,20.23-3.47,31.12-6.74q0.23,3.44.71,6.83c-20.39,4.88-41.79,17.85-48,21.22-13.78-30.42-1.93-59.19,9-72.47C388.28,148.46,427.9,182.15,440,193.31ZM461.2,191l-7.51-7a221.16,221.16,0,0,0-24-19.54c12.28-24.38,27.72-51,47.22-67.46-21.46,8.65-42.65,34.51-55.18,62.14a192.49,192.49,0,0,0-19.41-10.85C419.82,111,460.43,79.84,505.19,77.41,475.21,104.6,486.46,158.86,461.2,191Zm-61.58,25.43c-3.31-7.16-6.65-19.07-6.24-26.06,5.57-.13,16.25,2,18,2.36a99.59,99.59,0,0,0-1,11.41c1.06-1.82,4-8.11,5.19-10.58,10.7,2,24.76,5.46,33,9.3C438.84,209.15,422.39,216,399.62,216.45Zm-66.84-84.13c-39.12,39.65-23.67,89.8-9.43,112.47C303.09,278.49,263.26,301.55,217,312c51.95,0,82.5-13.37,100.27-26.47a86.36,86.36,0,0,0,20.63-21.2c77,5,199,29.79,210.86,37.83,4.77,3.23,9.7,10.36,10.42,17.19-57.88-8.1-162.2-16.63-189.51-18.08,19.39,2.75,160.83,29.53,185.35,35.8-7.46,12.17-24.46,20.76-50.08,14.79,13.84,18.86-13,41.48-50.47,29,8.24,18.51-25.09,35.18-63,15.88,0.48,18.52-47,20.66-65.77.19,0.36,2.44,2.59,7.11,3.55,9.15-6,54.08-50.34,87.64-95.72,87.64-111.09,0-207.86-90.22-207.86-210.25,0-126.9,93.79-221.6,206.95-221.6C297.47,61.95,326.76,113,332.78,132.32Z" transform="translate(0 -36.27)"/></svg>