<svg id="Layer_1" data-name="Layer 1" xmlns="http://www.w3.org/2000/svg" viewBox="0 0 529.05 600"><defs><style>.cls-1{fill:#1673b6;}.cls-2{fill:#35a9db;}.cls-3{fill:#fff;}.cls-4{fill:#ebebeb;}</style></defs><title>css</title><path id="Shape" class="cls-1" d="M83.62,540L35.48,0h529L516.33,539.94,299.68,600Z" transform="translate(-35.48)"/><path id="Shape-2" data-name="Shape" class="cls-2" d="M300,554.09l175.06-48.53,41.19-461.4H300V554.09Z" transform="translate(-35.48)"/><g id="Group"><path id="Shape-3" data-name="Shape" class="cls-3" d="M300,239.8h87.64L393.7,172H300V105.75H466.08l-1.59,17.77L448.21,306H300V239.8Z" transform="translate(-35.48)"/><path id="Shape-4" data-name="Shape" class="cls-4" d="M300.4,411.81l-0.29.08L226.35,392l-4.72-52.82H155.15l9.28,104,135.67,37.66,0.31-.09V411.81Z" transform="translate(-35.48)"/><path id="Shape-5" data-name="Shape" class="cls-3" d="M382,303.23l-8,88.7-73.87,19.94v68.91l135.78-37.63,1-11.19,11.52-128.73H382Z" transform="translate(-35.48)"/><path id="Shape-6" data-name="Shape" class="cls-4" d="M300.23,105.75V172h-160l-1.33-14.89-3-33.58-1.58-17.77H300.23Z" transform="translate(-35.48)"/><path id="Shape-7" data-name="Shape" class="cls-4" d="M300,239.81V306H227.17l-1.33-14.89-3-33.58-1.58-17.77H300Z" transform="translate(-35.48)"/></g></svg>