<svg id="Layer_1" data-name="Layer 1" xmlns="http://www.w3.org/2000/svg" viewBox="0 0 270.18 600"><defs><style>.cls-1{fill:#d24b48;}.cls-2{fill:#fff;}</style></defs><title>gulp</title><path class="cls-1" d="M373.36,581.91L379.11,486,395,458.86s-36.18,14.8-96.74,14.8-96.2-14.53-96.2-14.53l17.81,29.6,6.3,93.18c0,10,32.95,18.09,73.59,18.09s73.59-8.1,73.59-18.09" transform="translate(-164.91 0)"/><path class="cls-1" d="M355.2,134l12.08-47.76L434.19,15.8l-17.64-15-70.84,75-14,57.06c-10.17-.34-20.77-0.53-31.69-0.53-74.61,0-135.09,8.5-135.09,19s60.48,19,135.09,19,135.09-8.5,135.09-19c0-7.72-32.8-14.37-79.89-17.34" transform="translate(-164.91 0)"/><path class="cls-2" d="M348.17,160.71s-2.62.59-10.31,0.62-13.17,0-15.34-2a3.44,3.44,0,0,1-.9-2.31,3,3,0,0,1,2.21-2.67l1.17,1.83a1,1,0,0,0-.8.6c0,1,7.87,1.74,13.9,1.67s13.31-.57,13.31-1.59c0-.31-0.55-0.6-1.51-0.83l1.16-1.82c1.56,0.48,2.92,1.42,2.92,3,0,2.76-3.52,3.17-5.8,3.48" transform="translate(-164.91 0)"/><path class="cls-1" d="M434.06,15.94c1.68-1.94-.87-6.91-5.7-11.1s-10.12-6-11.8-4.06,0.87,6.91,5.7,11.1,10.12,6,11.8,4.06" transform="translate(-164.91 0)"/><path class="cls-1" d="M370.14,347.61c-1.59-15.26,33.37-37.35,24.4-38.06-19.31,1.1-28.93,22.63-38.64,45.18-3.56,8.26-15.75,43.5-23.74,39.17s10.36-33.31,15.5-50.52c-5.93,4.35-27.69,21.26-33.3,5.42-9,7.66-28.28,11.81-26.11-8.31-4.8,8.5-15.56,20.36-28.48,15.43-17-6.47,9.83-60.53,16.5-57.8s-1.35,15-3.44,19.82c-4.61,10.52-9.94,23.75-6.38,26.46,6.1,4.64,22.7-17.55,23.07-18,3.1-4.1,12-30.94,19.08-27.86S290.8,337,300.12,344.05c1.88,1.42,9.56-.88,14.24-5.93,3-3.27,2-10.52,12.07-34.57s19.07-54,26-51.72,1.22,17.65-1.27,23.38c-11.64,26.89-31.78,71.33-22.28,68s14.44-3.56,23.74-14.44,8.87-28.8,15.07-28.42,5.16,6.13,3.66,10.5c6.1-7,28.91-21.68,34.42-7.12,6.52,17.24-32.64,42.13-22.87,40.86,9.52-1.24,24.94-11,31.53-19.89l18.13-163s-18.24,15.09-134.28,15.09S165.85,162,165.85,162l15.43,148.74c8.19-23.28,27.64-70.37,58.3-68.79,13.95,0.72,32.56,27.57,16.62,28.48-6.75.38-7.44-13.4-15.43-15.43-5.77-1.46-13.8,3.23-19,8.31-10.35,10.13-32.61,50.1-29.67,70,3.75,25.4,35.06-8.83,40.35-19,3.73-7.16,6.25-28.37,14.41-26.14s-0.71,24.11-6.63,43.47c-6.64,21.73-10.14,44.65-18.47,42s5.24-30.69,4.75-35.6c-7.83,7.22-22.25,25.51-40.7,16.46l9.58,92.37s25.47,20.13,102.2,20.13,103.15-19.81,103.15-19.81l11.9-107c-9.74,9.48-40.55,26.32-42.52,7.34" transform="translate(-164.91 0)"/></svg>