<svg id="Layer_1" data-name="Layer 1" xmlns="http://www.w3.org/2000/svg" viewBox="0 0 529.05 600"><defs><style>.cls-1{fill:#e44f26;}.cls-2{fill:#f1662a;}.cls-3{fill:#ebebeb;}.cls-4{fill:#fff;}</style></defs><title>html</title><polygon class="cls-1" points="48.15 540.02 0 0 529.05 0 480.85 539.94 264.2 600 48.15 540.02"/><polygon class="cls-2" points="264.52 554.09 439.59 505.56 480.78 44.16 264.52 44.16 264.52 554.09"/><polygon class="cls-3" points="264.52 244.44 176.88 244.44 170.83 176.62 264.52 176.62 264.52 110.39 264.3 110.39 98.45 110.39 100.03 128.16 116.31 310.67 264.52 310.67 264.52 244.44"/><polygon class="cls-3" points="264.52 416.45 264.24 416.53 190.47 396.61 185.76 343.79 149.91 343.79 119.27 343.79 128.55 447.78 264.22 485.44 264.52 485.36 264.52 416.45"/><polygon class="cls-4" points="264.3 244.44 264.3 310.67 345.85 310.67 338.17 396.57 264.3 416.51 264.3 485.41 400.07 447.78 401.07 436.59 416.63 262.23 418.25 244.44 400.4 244.44 264.3 244.44"/><polygon class="cls-4" points="264.3 110.39 264.3 151.52 264.3 176.46 264.3 176.62 424.06 176.62 424.06 176.62 424.28 176.62 425.61 161.73 428.62 128.16 430.21 110.39 264.3 110.39"/></svg>