<svg id="Layer_1" data-name="Layer 1" xmlns="http://www.w3.org/2000/svg" viewBox="0 0 600 600"><defs><style>.cls-1{fill:#f6df1b;}.cls-2{fill:#010101;}</style></defs><title>javascript</title><rect class="cls-1" width="600" height="600"/><path class="cls-2" d="M403,468.75C415.13,488.49,430.86,503,458.67,503,482,503,497,491.31,497,475.18c0-19.33-15.33-26.18-41-37.43l-14.1-6c-40.69-17.33-67.71-39-67.71-85,0-42.29,32.22-74.48,82.57-74.48,35.85,0,61.62,12.48,80.19,45.14L493,345.61c-9.67-17.33-20.1-24.16-36.29-24.16-16.51,0-27,10.48-27,24.16,0,16.91,10.48,23.76,34.67,34.24l14.1,6c47.9,20.54,75,41.49,75,88.57C553.4,525.22,513.52,553,460,553c-52.36,0-86.19-25-102.74-57.66Zm-199.17,4.89c8.86,15.71,16.91,29,36.29,29,18.52,0,30.21-7.25,30.21-35.43V275.5h56.38V468c0,58.38-34.23,85-84.19,85-45.14,0-71.29-23.36-84.58-51.5Z"/></svg>