<svg id="Layer_1" data-name="Layer 1" xmlns="http://www.w3.org/2000/svg" viewBox="0 0 600 578.02"><defs><style>.cls-1{fill:#0a69ad;}</style></defs><title>jquery</title><path class="cls-1" d="M38.1,146.75C-15,223.1-8.41,322.43,32.17,403.56c1,1.95,2,3.86,3,5.77,0.64,1.21,1.24,2.46,1.9,3.66,0.37,0.72.79,1.42,1.18,2.1,0.69,1.29,1.4,2.52,2.12,3.78q1.89,3.34,3.87,6.64c0.73,1.21,1.45,2.43,2.21,3.64,1.46,2.37,3,4.7,4.5,7,0.64,1,1.26,2,1.91,3,2.12,3.16,4.28,6.3,6.51,9.4a2.43,2.43,0,0,0,.19.25c0.35,0.5.74,1,1.1,1.48,1.93,2.66,3.92,5.29,5.94,7.89L68.8,461q2.7,3.38,5.48,6.74c0.69,0.84,1.39,1.68,2.09,2.51,2.5,2.94,5,5.87,7.64,8.73l0.16,0.16c0.11,0.12.2,0.2,0.3,0.33,2.54,2.77,5.13,5.48,7.76,8.18,0.82,0.84,1.65,1.68,2.49,2.51q3.06,3.08,6.2,6.08c0.85,0.81,1.69,1.63,2.54,2.41q4.19,3.94,8.5,7.73l0.13,0.11c0.49,0.44,1,.84,1.48,1.26,2.54,2.19,5.12,4.37,7.72,6.52,1.06,0.86,2.13,1.7,3.2,2.55q3.19,2.54,6.43,5l3.44,2.61q3.58,2.64,7.22,5.18c0.89,0.64,1.74,1.26,2.63,1.87l0.72,0.51c2.3,1.59,4.66,3.11,7,4.64,1,0.67,2,1.37,3,2,3.61,2.29,7.27,4.54,11,6.72,1,0.58,2,1.14,3,1.71,2.72,1.57,5.46,3.11,8.24,4.62,1.5,0.81,3,1.57,4.56,2.35,2,1,3.91,2.07,5.9,3.07l1.36,0.65c0.8,0.39,1.61.76,2.41,1.17q4.63,2.22,9.34,4.33l2,0.89q5.4,2.36,10.9,4.53c0.88,0.36,1.77.7,2.65,1,3.39,1.31,6.83,2.6,10.29,3.81L227.9,574c3.79,1.32,7.62,2.55,11.47,3.75,0.92,0.26,1.84.56,2.77,0.82A111.51,111.51,0,0,0,254,581.94c256.91,46.85,331.54-154.39,331.54-154.39-62.68,81.66-173.93,103.19-279.34,79.21-4-.9-7.87-2.15-11.76-3.3l-2.93-.89q-5.71-1.75-11.33-3.69l-1.56-.56c-3.36-1.18-6.68-2.43-10-3.7l-2.8-1.1Q260.37,491.38,255,489c-0.73-.31-1.43-0.64-2.16-0.95-3.06-1.38-6.08-2.79-9.09-4.23-0.87-.42-1.74-0.82-2.63-1.26-2.36-1.15-4.7-2.38-7-3.58-1.56-.82-3.15-1.6-4.7-2.46-2.85-1.52-5.65-3.11-8.43-4.73-0.94-.53-1.9-1-2.85-1.59-3.7-2.18-7.36-4.44-11-6.72-1-.64-2-1.32-3-2-2.63-1.7-5.24-3.42-7.81-5.19-0.85-.58-1.68-1.2-2.52-1.77q-3.73-2.64-7.39-5.34c-1.11-.82-2.2-1.65-3.28-2.47-2.24-1.71-4.46-3.44-6.67-5.21l-3-2.38c-2.8-2.3-5.57-4.62-8.3-7l-0.91-.76c-3-2.6-5.86-5.26-8.73-7.94l-2.46-2.37c-2.12-2-4.22-4.06-6.27-6.15-0.82-.82-1.65-1.63-2.46-2.46q-3.92-4-7.69-8.14l-0.38-.4c-2.66-2.91-5.26-5.88-7.8-8.88l-2-2.43c-1.9-2.29-3.78-4.61-5.62-6.94-0.69-.84-1.38-1.7-2.06-2.57-2.21-2.87-4.37-5.73-6.49-8.64C53.82,294.67,32.79,184.57,79.57,94.16" transform="translate(0 -10.99)"/><path class="cls-1" d="M203,82.42c-38.42,55.28-36.33,129.29-6.36,187.76a244.6,244.6,0,0,0,17,28.37c5.76,8.25,12.14,18.07,19.78,24.69,2.77,3,5.66,6,8.62,8.95,0.75,0.76,1.51,1.49,2.27,2.24,2.87,2.79,5.79,5.52,8.81,8.18,0.12,0.09.23,0.22,0.36,0.31a0.48,0.48,0,0,1,.09.08c3.34,2.93,6.78,5.74,10.29,8.51,0.78,0.59,1.55,1.21,2.33,1.82,3.51,2.69,7.09,5.34,10.76,7.86l0.31,0.23c1.62,1.12,3.27,2.16,4.91,3.24,0.79,0.51,1.53,1.06,2.33,1.54q3.93,2.52,8,4.89c0.38,0.23.75,0.44,1.13,0.65,2.33,1.34,4.68,2.66,7,3.94,0.82,0.47,1.66.87,2.51,1.31,1.63,0.86,3.27,1.73,4.93,2.55,0.25,0.12.51,0.23,0.75,0.34,3.38,1.66,6.8,3.27,10.29,4.79,0.75,0.33,1.52.62,2.27,0.93,2.79,1.18,5.6,2.33,8.43,3.42,1.2,0.45,2.41.89,3.61,1.32,2.57,0.95,5.14,1.82,7.74,2.69,1.17,0.37,2.33.76,3.5,1.12,3.7,1.15,7.34,2.6,11.2,3.24C554.21,430.26,600,277.54,600,277.54,558.72,337,478.78,365.36,393.47,343.22c-3.79-1-7.52-2.09-11.23-3.25-1.14-.34-2.25-0.72-3.38-1.09q-4-1.28-7.86-2.71c-1.19-.44-2.38-0.87-3.55-1.32q-4.27-1.63-8.46-3.41c-0.76-.33-1.53-0.62-2.28-1q-5.25-2.29-10.35-4.81c-1.75-.86-3.47-1.76-5.19-2.65l-3-1.54c-2.21-1.2-4.4-2.44-6.57-3.7-0.51-.3-1.05-0.58-1.57-0.89q-4-2.36-8-4.85c-0.81-.51-1.59-1.07-2.4-1.6-1.73-1.12-3.45-2.26-5.15-3.41-3.66-2.52-7.21-5.17-10.72-7.84-0.81-.64-1.62-1.26-2.41-1.9-37.34-29.48-66.94-69.77-81-115.45-14.75-47.38-11.57-100.57,14-143.73" transform="translate(0 -10.99)"/><path class="cls-1" d="M341.7,34.36c-22.65,33.33-24.87,74.72-9.16,111.53,16.57,39.07,50.53,69.72,90.16,84.26,1.63,0.61,3.27,1.15,4.92,1.71,0.72,0.22,1.44.47,2.17,0.68a62,62,0,0,0,7.06,2C546.39,255.74,576.09,178.38,584,167c-26,37.47-69.76,46.46-123.41,33.44-4.24-1-8.9-2.56-13-4A158.69,158.69,0,0,1,432.19,190a159.47,159.47,0,0,1-27-16.49c-48-36.43-77.84-105.93-46.51-162.53" transform="translate(0 -10.99)"/></svg>