<svg id="Layer_1" data-name="Layer 1" xmlns="http://www.w3.org/2000/svg" xmlns:xlink="http://www.w3.org/1999/xlink" viewBox="0 0 268.96 600"><defs><style>.cls-1{fill:none;}.cls-2{clip-path:url(#clip-path);}.cls-3{fill:url(#linear-gradient);}.cls-4{clip-path:url(#clip-path-2);}.cls-5{fill:url(#linear-gradient-2);}.cls-6{clip-path:url(#clip-path-3);}.cls-7{fill:url(#linear-gradient-3);}</style><clipPath id="clip-path" transform="translate(-165.52)"><path class="cls-1" d="M313.75,600l-16.09-5.33s2.05-81.45-27.32-87.16c-19.37-22.44,3-958.75,73.35-3.21,0,0-24.09,12.09-28.65,32.63S313.75,600,313.75,600Z"/></clipPath><linearGradient id="linear-gradient" x1="6.75" y1="597.11" x2="11.05" y2="597.11" gradientTransform="matrix(43.05, 14.52, 13.1, -38.63, -7906.56, 23276.35)" gradientUnits="userSpaceOnUse"><stop offset="0" stop-color="#92966a"/><stop offset="0.23" stop-color="#92966a"/><stop offset="1" stop-color="#fefdf3"/></linearGradient><clipPath id="clip-path-2" transform="translate(-165.52)"><path class="cls-1" d="M322.42,521.34S462.27,429.24,429.5,238C398,99,323.46,53.3,315.46,35.86c-8.81-12.34-17.69-34.22-17.69-34.22l5.95,387.21s-12.3,118.23,18.71,132.49h0Z"/></clipPath><linearGradient id="linear-gradient-2" x1="1.35" y1="602.89" x2="5.65" y2="602.89" gradientTransform="matrix(30.15, 117.03, 125.92, -20.19, -75679.32, 12018.04)" gradientUnits="userSpaceOnUse"><stop offset="0" stop-color="#46aa48"/><stop offset="1" stop-color="#3d9544"/></linearGradient><clipPath id="clip-path-3" transform="translate(-165.52)"><path class="cls-1" d="M289.47,526.49S158.29,437,165.84,279.11,266,43.58,284.08,29.49C295.75,17.06,296.23,12.27,297.13,0c8.18,17.56,6.82,262.36,7.68,291C308.18,402.35,298.65,505.47,289.47,526.49Z"/></clipPath><linearGradient id="linear-gradient-3" x1="2.39" y1="596.08" x2="6.68" y2="596.08" gradientTransform="matrix(52.76, -11.99, -16.49, -49.26, 9853.87, 29689.23)" gradientUnits="userSpaceOnUse"><stop offset="0" stop-color="#42a848"/><stop offset="1" stop-color="#61bb46"/></linearGradient></defs><title>mongo</title><g id="g14"><g class="cls-2"><g id="g16"><path id="path30" class="cls-3" d="M313.75,600l-16.09-5.33s2.05-81.45-27.32-87.16c-19.37-22.44,3-958.75,73.35-3.21,0,0-24.09,12.09-28.65,32.63S313.75,600,313.75,600" transform="translate(-165.52)"/></g></g></g><g id="g32"><g class="cls-4"><g id="g34"><path id="path46" class="cls-5" d="M322.42,521.34S462.27,429.24,429.5,238C398,99,323.46,53.3,315.46,35.86c-8.81-12.34-17.69-34.22-17.69-34.22l5.95,387.21s-12.3,118.23,18.71,132.49" transform="translate(-165.52)"/></g></g></g><g id="g48"><g class="cls-6"><g id="g50"><path id="path62" class="cls-7" d="M289.47,526.49S158.29,437,165.84,279.11,266,43.58,284.08,29.49C295.75,17.06,296.23,12.27,297.13,0c8.18,17.56,6.82,262.36,7.68,291,3.36,111.38-6.17,214.5-15.35,235.52" transform="translate(-165.52)"/></g></g></g></svg>