<svg id="Layer_1" data-name="Layer 1" xmlns="http://www.w3.org/2000/svg" viewBox="0 0 544.48 600"><defs><style>.cls-1{fill:#8ec74e;}</style></defs><title>node</title><path class="cls-1" d="M275.43,6.4a50.31,50.31,0,0,1,49.12,0Q436.72,69.78,548.91,133.13C563,141,572.38,156.7,572.24,172.9V427.13C572.34,444,562,460,547.17,467.77q-111.8,63-223.56,126.12c-15.19,8.68-35,8-49.66-1.38q-33.52-19.43-67.08-38.78c-4.57-2.72-9.72-4.89-12.94-9.32,2.85-3.84,7.95-4.32,12.09-6,9.33-3,17.9-7.73,26.46-12.35,2.17-1.48,4.81-.92,6.89.41,19.11,11,38,22.23,57.22,33.08,4.09,2.36,8.23-.77,11.73-2.72Q418,494.83,527.83,433a7.26,7.26,0,0,0,4-7.15q0.08-125.8,0-251.61a7.87,7.87,0,0,0-4.68-7.84Q415.74,103.62,304.37,40.8a7.74,7.74,0,0,0-8.75,0Q184.23,103.57,72.87,166.4a7.77,7.77,0,0,0-4.71,7.81q0,125.8,0,251.62a7.11,7.11,0,0,0,4,7.06q29.73,16.86,59.49,33.6c11.17,6,24.89,9.59,37.2,5a28.22,28.22,0,0,0,18.27-26.51c0.1-83.37-.05-166.76.08-250.12a6.28,6.28,0,0,1,6.84-6.41c9.52-.06,19.06-0.13,28.58,0,4-.09,6.71,3.9,6.22,7.63,0,83.9.1,167.81-.06,251.71,0,22.36-9.16,46.69-29.84,57.63-25.48,13.2-57,10.4-82.15-2.26-21.79-10.88-42.59-23.71-64-35.36-14.88-7.7-25.16-23.79-25.06-40.65V172.9c-0.15-16.54,9.63-32.47,24.13-40.28Q163.68,69.53,275.43,6.4h0Z" transform="translate(-27.76 0)"/><path class="cls-1" d="M340.45,182.5c32.5-2.09,67.3-1.24,96.55,14.77,22.64,12.27,35.2,38,35.6,63.18-0.63,3.39-4.18,5.26-7.42,5-9.43,0-18.86.13-28.29-.06-4,.15-6.32-3.54-6.83-7.07-2.71-12-9.28-24-20.6-29.77-17.39-8.71-37.56-8.27-56.52-8.09-13.84.74-28.73,1.94-40.46,10.08-9,6.17-11.74,18.62-8.53,28.64,3,7.2,11.34,9.52,18.14,11.66,39.17,10.24,80.68,9.23,119.1,22.71,15.91,5.5,31.47,16.18,36.91,32.84,7.12,22.32,4,49-11.88,66.92-12.88,14.75-31.64,22.77-50.34,27.13-24.89,5.55-50.72,5.69-76,3.23-23.77-2.71-48.5-9-66.85-25.15-15.69-13.62-23.35-34.85-22.59-55.34,0.18-3.46,3.63-5.87,6.94-5.59,9.5-.08,19-0.1,28.49,0,3.79-.27,6.61,3,6.8,6.58,1.75,11.47,6.06,23.51,16.06,30.31,19.3,12.45,43.52,11.6,65.62,11.95,18.31-.81,38.86-1.06,53.8-13.16,7.88-6.9,10.22-18.45,8.09-28.38-2.31-8.39-11.08-12.3-18.62-14.85-38.67-12.23-80.64-7.79-118.93-21.62-15.55-5.5-30.58-15.88-36.55-31.86-8.33-22.6-4.52-50.56,13-67.88,17.11-17.22,41.8-23.86,65.29-26.23h0Z" transform="translate(-27.76 0)"/></svg>