<svg id="Layer_1" data-name="Layer 1" xmlns="http://www.w3.org/2000/svg" viewBox="0 0 600 233.33"><defs><style>.cls-1{fill:#cc3937;}.cls-2{fill:#fff;}</style></defs><title>npm</title><path class="cls-1" d="M0,183.33H600v200H300v33.33H166.67V383.33H0v-200ZM33.33,350H100V250h33.33V350h33.33V216.67H33.33V350ZM200,216.67V383.33h66.67V350h66.67V216.67H200ZM266.67,250H300v66.67H266.67V250Zm100-33.33V350h66.67V250h33.33V350H500V250h33.33V350h33.33V216.67h-200Z" transform="translate(0 -183.33)"/><polygon class="cls-2" points="33.33 166.67 100 166.67 100 66.67 133.33 66.67 133.33 166.67 166.67 166.67 166.67 33.33 33.33 33.33 33.33 166.67"/><path class="cls-2" d="M200,216.67V383.33h66.67V350h66.67V216.67H200Zm100,100H266.67V250H300v66.67Z" transform="translate(0 -183.33)"/><polygon class="cls-2" points="366.67 33.33 366.67 166.67 433.33 166.67 433.33 66.67 466.67 66.67 466.67 166.67 500 166.67 500 66.67 533.33 66.67 533.33 166.67 566.67 166.67 566.67 33.33 366.67 33.33"/></svg>