<svg id="Layer_1" data-name="Layer 1" xmlns="http://www.w3.org/2000/svg" viewBox="0 0 600 449.74"><defs><style>.cls-1{fill:#cf659b;}</style></defs><title>sass</title><path class="cls-1" d="M516.51,333.38A123.61,123.61,0,0,0,462.13,346c-5.63-11.13-11.25-20.86-12.19-28.13-1.05-8.44-2.34-13.59-1.05-23.67S456,269.86,456,268.69s-1.29-6.21-13.36-6.33-22.5,2.34-23.67,5.51a134.6,134.6,0,0,0-5,17.93c-2.11,11-24.14,50-36.68,70.55-4.1-8-7.62-15-8.32-20.63-1.05-8.44-2.34-13.59-1.05-23.67s7.15-24.38,7.15-25.55-1.29-6.21-13.36-6.33-22.5,2.34-23.67,5.51-2.46,10.66-5,17.93S301.22,376,293.6,393c-3.87,8.67-7.27,15.59-9.73,20.28s-0.12.35-.35,0.82l-3.28,6.21v0.12c-1.64,2.93-3.4,5.74-4.22,5.74-0.59,0-1.76-7.85.23-18.63,4.34-22.62,14.88-57.9,14.77-59.18,0-.59,2-6.8-6.8-10-8.56-3.16-11.6,2.11-12.31,2.11s-1.29,1.88-1.29,1.88,9.49-39.73-18.17-39.73c-17.35,0-41.25,18.87-53.09,36.1-7.5,4.1-23.44,12.77-40.32,22-6.45,3.52-13.13,7.27-19.45,10.66l-1.29-1.41C104.79,334.32,42.8,309,45.37,261c0.94-17.46,7-63.52,119.07-119.31,91.77-45.71,165.25-33.17,178-5.27C360.64,176.22,303.21,250.29,207.81,261c-36.33,4.1-55.43-10-60.24-15.24-5-5.51-5.74-5.74-7.62-4.69-3,1.64-1.17,6.56,0,9.49,2.81,7.38,14.53,20.51,34.46,27.07,17.46,5.74,60.12,8.91,111.69-11,57.78-22.38,102.9-84.5,89.66-136.42-13.48-52.86-101.14-70.2-184-40.78-49.34,17.58-102.78,45-141.22,81C4.82,213-2.44,250.29.6,265.76,11.27,321,87.33,356.94,117.8,383.54c-1.52.82-2.93,1.64-4.22,2.34-15.24,7.5-73.25,37.85-87.78,70-16.41,36.33,2.58,62.47,15.24,66,39.14,10.9,79.23-8.67,100.91-40.9s19-74.07,9-93.17l-0.35-.7,12-7c7.74-4.57,15.35-8.79,22-12.42-3.75,10.2-6.45,22.27-7.85,39.85-1.64,20.63,6.8,47.35,17.93,57.9,4.92,4.57,10.78,4.69,14.42,4.69,12.89,0,18.75-10.66,25.2-23.44,8-15.59,15-33.64,15-33.64s-8.79,48.87,15.24,48.87c8.79,0,17.58-11.37,21.56-17.23v0.12s0.23-.35.7-1.17c0.94-1.41,1.41-2.23,1.41-2.23v-0.23c3.52-6.09,11.37-20,23.09-43.13,15.12-29.77,29.65-67,29.65-67a213.91,213.91,0,0,0,5.74,24.14c2.58,8.91,8.2,18.63,12.54,28.13-3.52,4.92-5.63,7.74-5.63,7.74l0.12,0.12c-2.81,3.75-6,7.74-9.26,11.72-12,14.3-26.25,30.59-28.13,35.28-2.23,5.51-1.76,9.61,2.58,12.89,3.16,2.34,8.79,2.81,14.77,2.34a65.79,65.79,0,0,0,22-5,76.31,76.31,0,0,0,19-10c11.72-8.67,18.87-21,18.17-37.39-0.35-9-3.28-17.93-6.91-26.37,1.05-1.52,2.11-3,3.16-4.69C407.63,342.76,421.93,313,421.93,313a213.91,213.91,0,0,0,5.74,24.14c2.23,7.62,6.68,15.94,10.66,24.14-17.35,14.18-28.24,30.59-32,41.37-6.91,19.92-1.52,28.95,8.67,31.06,4.57,0.94,11.13-1.17,16.06-3.28A72.7,72.7,0,0,0,451.35,420c11.72-8.67,23-20.74,22.38-37a71,71,0,0,0-5-21.92c14.77-6.09,33.87-9.61,58.13-6.68C579,360.46,589.29,393,587.3,406.63s-12.89,21.1-16.52,23.44-4.81,3-4.45,4.69c0.47,2.46,2.11,2.34,5.27,1.88,4.34-.7,27.42-11.13,28.36-36.21,1.41-32.23-29.18-67.39-83.44-67h0ZM114.29,469c-17.23,18.87-41.49,26-51.8,19.92-11.13-6.45-6.8-34.22,14.42-54.26,12.89-12.19,29.65-23.44,40.67-30.35,2.46-1.52,6.21-3.75,10.66-6.45a12.18,12.18,0,0,1,1.17-.7c0.82-.47,1.76-1.05,2.7-1.64,7.85,28.6.35,53.68-17.81,73.48h0Zm126-85.67c-6,14.65-18.63,52.27-26.25,50.16-6.56-1.76-10.55-30.24-1.29-58.36,4.69-14.18,14.65-31.06,20.51-37.62,9.49-10.55,19.81-14.06,22.38-9.73C258.67,333.38,244,374.17,240.27,383.31Zm104,49.69c-2.58,1.29-4.92,2.23-6,1.52-0.82-.47,1.05-2.23,1.05-2.23s13-13.95,18.17-20.39c2.93-3.75,6.45-8.09,10.2-13v1.41C367.67,417.18,351.49,428.43,344.23,433Zm80.16-18.28c-1.88-1.41-1.64-5.74,4.69-19.34,2.46-5.39,8.09-14.42,17.81-23a29,29,0,0,1,1.76,10.08C448.53,403.59,433.53,411.44,424.39,414.72Z" transform="translate(0 -75.13)"/></svg>