<svg id="Layer_1" data-name="Layer 1" xmlns="http://www.w3.org/2000/svg" viewBox="0 0 601 601"><defs><style>.cls-1,.cls-5{fill:#323333;}.cls-1{stroke:#323333;}.cls-1,.cls-2,.cls-3,.cls-4{stroke-miterlimit:10;}.cls-2{fill:#4b4c4d;stroke:#4b4c4d;}.cls-3{fill:#e1e4e5;stroke:#e1e4e5;}.cls-4{fill:#f5f9fa;stroke:#f5f9fa;}</style></defs><title>logo</title><circle class="cls-1" cx="300.5" cy="300.5" r="300"/><rect class="cls-2" x="75" y="150" width="450" height="300" transform="translate(-98.18 155.39) rotate(-25)"/><rect class="cls-3" x="75" y="150" width="450" height="300" transform="translate(-66.92 88.37) rotate(-15)"/><rect class="cls-4" x="75.5" y="150.5" width="450" height="300"/><path class="cls-5" d="M332.84,205L310,402.59H245.79Q237,357,230.24,298.95q-3.08,24.91-14.33,103.64h-63.8L129.1,205H179l5.43,69,5.25,66.66q2.84-51.75,14.21-135.62h53.37q1.06,8.67,5.61,65.19l5.68,75.19Q273,273.58,282.91,205h49.93Z" transform="translate(0.5 0.5)"/><path class="cls-5" d="M343,205h38.45q37.23,0,50.35,3.42t20,11.23a35.58,35.58,0,0,1,8.54,17.4q1.71,9.58,1.71,37.66v69.21q0,26.61-2.5,35.58a26.75,26.75,0,0,1-8.73,14,36.3,36.3,0,0,1-15.38,7.08q-9.16,2-27.59,2H343V205Zm51.39,33.81v130q11.11,0,13.67-4.46t2.56-24.23V263.31q0-13.43-.85-17.21a8.17,8.17,0,0,0-3.91-5.55Q402.78,238.77,394.36,238.77Z" transform="translate(0.5 0.5)"/></svg>